<?xml version="1.0" standalone="no"?>
<!DOCTYPE svg PUBLIC "-//W3C//DTD SVG 20010904//EN"
 "http://www.w3.org/TR/2001/REC-SVG-20010904/DTD/svg10.dtd">
<svg version="1.0" xmlns="http://www.w3.org/2000/svg"
 width="1200.000000pt" height="1200.000000pt" viewBox="0 0 1200.000000 1200.000000"
 preserveAspectRatio="xMidYMid meet">

<g transform="translate(0.000000,1200.000000) scale(0.100000,-0.100000)"
fill="#000000" stroke="none">
<path d="M1190 6000 l0 -4810 4810 0 4810 0 0 4810 0 4810 -4810 0 -4810 0 0
-4810z m9360 0 l0 -4550 -4550 0 -4550 0 0 4550 0 4550 4550 0 4550 0 0 -4550z"/>
<path d="M3965 6911 c-3 -6 -31 -10 -63 -10 -31 0 -74 -7 -94 -15 -21 -9 -47
-16 -59 -16 -23 0 -148 -35 -194 -55 -16 -7 -55 -21 -85 -31 -30 -10 -62 -23
-70 -30 -8 -6 -65 -37 -127 -68 -61 -30 -146 -79 -188 -108 -42 -29 -84 -57
-95 -63 -10 -5 -21 -19 -25 -32 -3 -13 -28 -37 -59 -57 -91 -58 -139 -142
-158 -276 -9 -62 -8 -89 5 -154 9 -43 23 -86 32 -96 8 -9 15 -25 15 -34 0 -10
20 -40 44 -67 25 -27 51 -63 58 -80 7 -18 29 -39 50 -50 20 -10 39 -28 43 -39
4 -12 15 -20 29 -20 13 0 29 -7 37 -16 15 -18 202 -114 222 -114 8 0 26 -9 40
-21 15 -11 32 -19 39 -18 17 3 104 -36 112 -50 4 -6 15 -11 25 -11 30 0 213
-64 251 -88 19 -12 61 -27 93 -33 32 -7 66 -19 74 -28 9 -9 35 -24 57 -34 22
-10 47 -24 56 -31 8 -8 26 -17 40 -21 39 -11 94 -52 130 -96 l32 -41 -18 -40
c-16 -36 -29 -45 -127 -95 -61 -30 -137 -61 -171 -68 -34 -7 -90 -23 -126 -35
-67 -23 -208 -38 -254 -26 -21 5 -26 12 -26 37 0 34 -22 93 -40 104 -22 14
-100 -16 -122 -47 -44 -63 -30 -174 30 -230 23 -22 42 -28 136 -38 66 -7 133
-9 170 -4 34 4 79 8 101 10 83 4 224 43 338 92 120 52 180 93 206 141 8 14 31
45 52 68 22 24 39 49 39 57 0 8 9 18 20 21 25 8 26 38 4 119 -21 76 -43 100
-147 160 -45 27 -104 62 -132 79 -27 16 -90 45 -140 62 -49 18 -126 49 -170
69 -44 20 -93 36 -109 36 -16 0 -37 7 -47 16 -20 18 -178 79 -255 99 -62 15
-227 117 -328 202 -41 35 -96 92 -121 127 -39 56 -46 73 -52 129 -4 48 -2 70
10 88 8 13 20 42 27 64 13 41 95 131 141 155 13 7 40 26 59 42 49 41 250 168
267 168 7 0 30 10 51 23 43 27 222 77 274 77 22 0 41 -7 52 -19 29 -32 70 -36
119 -12 36 17 62 21 156 21 62 0 121 -5 132 -10 12 -7 19 -7 19 -1 0 5 10 13
21 16 17 6 20 13 16 39 -4 27 -1 34 24 48 22 13 29 24 29 48 0 16 -5 30 -10
30 -6 0 -21 11 -34 24 -18 20 -42 28 -120 42 -54 9 -114 14 -133 11 -20 -4
-44 -2 -54 3 -11 6 -20 7 -24 1z"/>
<path d="M4723 6498 c-18 -20 -22 -41 -27 -143 -9 -195 -24 -336 -39 -393 -9
-29 -21 -94 -27 -145 -7 -52 -21 -105 -31 -123 -11 -17 -19 -45 -19 -61 0 -16
-13 -98 -30 -181 -35 -175 -35 -185 -15 -202 8 -7 15 -29 15 -50 0 -82 73
-185 149 -211 22 -8 66 -10 123 -5 76 5 98 11 160 43 39 21 85 53 101 71 17
18 46 41 66 52 20 10 72 59 116 109 44 51 89 98 101 106 21 14 23 11 62 -70
68 -140 146 -208 254 -221 47 -5 60 -2 120 28 99 51 191 152 255 281 42 83 55
124 74 225 l23 123 -18 125 c-16 116 -16 127 -1 150 9 13 13 29 10 35 -4 5 1
26 10 45 9 19 13 38 10 43 -3 5 -1 12 4 15 13 9 1 86 -19 121 -10 17 -25 53
-34 80 -23 70 -52 115 -75 115 -11 0 -33 11 -49 25 -36 30 -49 31 -78 4 -19
-18 -20 -25 -12 -62 5 -23 8 -55 7 -72 -2 -17 1 -36 5 -44 17 -26 26 -89 41
-261 23 -272 20 -382 -12 -482 -15 -48 -37 -93 -52 -108 -14 -14 -36 -47 -50
-73 -28 -57 -71 -87 -121 -86 -28 1 -42 9 -72 44 -51 57 -59 104 -59 357 0
168 -3 209 -14 218 -8 7 -15 20 -15 30 0 17 -103 100 -125 100 -20 0 -53 -44
-53 -70 0 -24 -11 -116 -31 -250 -9 -64 -27 -125 -41 -145 -15 -20 -50 -86
-50 -94 0 -12 -181 -199 -207 -214 -11 -7 -34 -21 -51 -32 -17 -11 -45 -29
-63 -40 -18 -11 -40 -24 -49 -30 -9 -5 -41 -9 -71 -7 l-54 4 -26 56 c-25 53
-26 61 -16 122 5 36 10 81 9 100 -1 19 5 55 13 80 8 25 23 88 34 141 10 53 26
110 35 127 9 17 16 45 16 62 0 17 9 58 20 91 30 87 50 237 50 366 l0 112 -73
45 c-41 25 -76 46 -79 46 -2 0 -14 -10 -25 -22z"/>
<path d="M7085 6291 c-33 -9 -87 -32 -120 -51 -33 -18 -85 -46 -115 -62 -30
-16 -75 -46 -100 -68 -44 -39 -98 -84 -207 -173 -29 -23 -53 -48 -53 -54 0 -7
-7 -13 -15 -13 -8 0 -15 -8 -15 -17 0 -10 -23 -44 -50 -77 -104 -121 -161
-224 -184 -332 l-14 -69 34 -105 c44 -133 81 -193 136 -221 23 -12 54 -30 69
-41 63 -47 394 -10 482 53 21 15 71 40 110 55 40 16 89 43 110 61 21 19 52 41
70 49 18 9 59 51 93 97 72 96 94 136 94 172 0 15 11 54 24 88 13 34 27 87 31
117 3 30 15 74 25 97 14 32 19 72 22 161 3 115 2 120 -23 153 -15 19 -38 51
-52 72 -38 55 -102 99 -152 103 -23 2 -54 8 -69 14 -36 13 -59 12 -131 -9z
m63 -245 c8 -15 27 -32 43 -38 16 -5 29 -14 29 -19 0 -5 13 -9 30 -9 16 0 40
-5 54 -11 25 -12 25 -14 20 -93 -4 -59 -18 -117 -51 -214 -39 -114 -54 -145
-106 -214 -70 -93 -169 -165 -303 -220 -72 -30 -87 -32 -174 -30 -118 2 -154
17 -199 82 -31 47 -33 53 -26 107 9 73 31 126 103 237 72 112 162 209 263 282
43 32 79 62 79 66 0 4 10 8 23 8 13 0 28 5 35 12 18 18 145 86 157 83 6 -1 16
-14 23 -29z"/>
<path d="M8435 6291 c-33 -9 -87 -32 -120 -51 -33 -18 -85 -46 -115 -62 -30
-16 -75 -46 -100 -68 -44 -39 -98 -84 -207 -173 -29 -23 -53 -48 -53 -54 0 -7
-7 -13 -15 -13 -8 0 -15 -8 -15 -17 0 -10 -23 -44 -50 -77 -104 -121 -161
-224 -184 -332 l-14 -69 34 -105 c44 -133 81 -193 136 -221 23 -12 54 -30 69
-41 63 -47 394 -10 482 53 21 15 71 40 110 55 40 16 89 43 110 61 21 19 52 41
70 49 18 9 59 51 93 97 72 96 94 136 94 172 0 15 11 54 24 88 13 34 27 87 31
117 3 30 15 74 25 97 14 32 19 72 22 161 3 115 2 120 -23 153 -15 19 -38 51
-52 72 -38 55 -102 99 -152 103 -23 2 -54 8 -69 14 -36 13 -59 12 -131 -9z
m63 -245 c8 -15 27 -32 43 -38 16 -5 29 -14 29 -19 0 -5 13 -9 30 -9 16 0 40
-5 54 -11 25 -12 25 -14 20 -93 -4 -59 -18 -117 -51 -214 -39 -114 -54 -145
-106 -214 -70 -93 -169 -165 -303 -220 -72 -30 -87 -32 -174 -30 -118 2 -154
17 -199 82 -31 47 -33 53 -26 107 9 73 31 126 103 237 72 112 162 209 263 282
43 32 79 62 79 66 0 4 10 8 23 8 13 0 28 5 35 12 18 18 145 86 157 83 6 -1 16
-14 23 -29z"/>
</g>
</svg>
